<svg id="visual" viewBox="0 0 900 600" width="900" height="600" xmlns="http://www.w3.org/2000/svg" xmlns:xlink="http://www.w3.org/1999/xlink" version="1.1"><rect x="0" y="0" width="900" height="600" fill="#fffdf6"></rect><defs><linearGradient id="grad1_0" x1="33.3%" y1="0%" x2="100%" y2="100%"><stop offset="20%" stop-color="#996aff" stop-opacity="1"></stop><stop offset="80%" stop-color="#996aff" stop-opacity="1"></stop></linearGradient></defs><defs><linearGradient id="grad1_1" x1="33.3%" y1="0%" x2="100%" y2="100%"><stop offset="20%" stop-color="#996aff" stop-opacity="1"></stop><stop offset="80%" stop-color="#ffa2a3" stop-opacity="1"></stop></linearGradient></defs><defs><linearGradient id="grad1_2" x1="33.3%" y1="0%" x2="100%" y2="100%"><stop offset="20%" stop-color="#fffdf6" stop-opacity="1"></stop><stop offset="80%" stop-color="#ffa2a3" stop-opacity="1"></stop></linearGradient></defs><defs><linearGradient id="grad2_0" x1="0%" y1="0%" x2="66.7%" y2="100%"><stop offset="20%" stop-color="#996aff" stop-opacity="1"></stop><stop offset="80%" stop-color="#996aff" stop-opacity="1"></stop></linearGradient></defs><defs><linearGradient id="grad2_1" x1="0%" y1="0%" x2="66.7%" y2="100%"><stop offset="20%" stop-color="#ffa2a3" stop-opacity="1"></stop><stop offset="80%" stop-color="#996aff" stop-opacity="1"></stop></linearGradient></defs><defs><linearGradient id="grad2_2" x1="0%" y1="0%" x2="66.7%" y2="100%"><stop offset="20%" stop-color="#ffa2a3" stop-opacity="1"></stop><stop offset="80%" stop-color="#fffdf6" stop-opacity="1"></stop></linearGradient></defs><g transform="translate(900, 0)"><path d="M0 216.3C-22.7 221.3 -45.4 226.3 -56 209C-66.6 191.6 -65.1 151.9 -82 142C-98.9 132.2 -134.2 152.2 -145.7 145.7C-157.1 139.2 -144.7 106.2 -152.4 88C-160.1 69.8 -187.9 66.3 -201.9 54.1C-215.9 41.9 -216.1 20.9 -216.3 0L0 0Z" fill="#ffd5b7"></path><path d="M0 144.2C-15.1 147.6 -30.3 150.9 -37.3 139.3C-44.4 127.7 -43.4 101.3 -54.7 94.7C-65.9 88.1 -89.5 101.4 -97.1 97.1C-104.7 92.8 -96.5 70.8 -101.6 58.7C-106.7 46.5 -125.3 44.2 -134.6 36.1C-143.9 27.9 -144.1 14 -144.2 0L0 0Z" fill="#fe71c3"></path><path d="M0 72.1C-7.6 73.8 -15.1 75.4 -18.7 69.7C-22.2 63.9 -21.7 50.6 -27.3 47.3C-33 44.1 -44.7 50.7 -48.6 48.6C-52.4 46.4 -48.2 35.4 -50.8 29.3C-53.4 23.3 -62.6 22.1 -67.3 18C-72 14 -72 7 -72.1 0L0 0Z" fill="#996aff"></path></g><g transform="translate(0, 600)"><path d="M0 -216.3C21.4 -219.8 42.9 -223.3 55.6 -207.7C68.4 -192.1 72.5 -157.4 79.5 -137.7C86.5 -118 96.3 -113.3 107.5 -107.5C118.6 -101.7 131.1 -94.8 150.7 -87C170.2 -79.2 196.8 -70.6 209 -56C221.1 -41.3 218.7 -20.7 216.3 0L0 0Z" fill="#ffd5b7"></path><path d="M0 -144.2C14.3 -146.5 28.6 -148.9 37.1 -138.4C45.6 -128 48.4 -104.9 53 -91.8C57.6 -78.7 64.2 -75.5 71.7 -71.7C79.1 -67.8 87.4 -63.2 100.5 -58C113.5 -52.8 131.2 -47.1 139.3 -37.3C147.4 -27.6 145.8 -13.8 144.2 0L0 0Z" fill="#fe71c3"></path><path d="M0 -72.1C7.1 -73.3 14.3 -74.4 18.5 -69.2C22.8 -64 24.2 -52.5 26.5 -45.9C28.8 -39.3 32.1 -37.8 35.8 -35.8C39.5 -33.9 43.7 -31.6 50.2 -29C56.7 -26.4 65.6 -23.5 69.7 -18.7C73.7 -13.8 72.9 -6.9 72.1 0L0 0Z" fill="#996aff"></path></g></svg>