<?xml version="1.0" encoding="UTF-8" standalone="no"?>
<svg
   width="900"
   height="600"
   version="1.1"
   id="svg1"
   sodipodi:docname="bg-blob-single-nude.svg"
   inkscape:version="1.3.2 (091e20e, 2023-11-25, custom)"
   xmlns:inkscape="http://www.inkscape.org/namespaces/inkscape"
   xmlns:sodipodi="http://sodipodi.sourceforge.net/DTD/sodipodi-0.dtd"
   xmlns="http://www.w3.org/2000/svg"
   xmlns:svg="http://www.w3.org/2000/svg">
  <defs
     id="defs1" />
  <sodipodi:namedview
     id="namedview1"
     pagecolor="#505050"
     bordercolor="#eeeeee"
     borderopacity="1"
     inkscape:showpageshadow="0"
     inkscape:pageopacity="0"
     inkscape:pagecheckerboard="0"
     inkscape:deskcolor="#505050"
     inkscape:zoom="0.41326463"
     inkscape:cx="454.91432"
     inkscape:cy="301.25975"
     inkscape:window-width="1366"
     inkscape:window-height="697"
     inkscape:window-x="-8"
     inkscape:window-y="-8"
     inkscape:window-maximized="1"
     inkscape:current-layer="svg1" />
  <g
     id="g1"
     style="opacity:0.12897822">
    <title
       id="title1">Layer 1</title>
    <g
       id="svg_2">
      <path
         id="svg_3"
         fill="#f8f6f0"
         d="m900,297.5c-16.2,-9.6 -32.4,-19.2 -48.3,-23.7c-15.9,-4.5 -31.5,-3.9 -50.2,-3.2c-18.7,0.7 -40.4,1.5 -50.2,-13c-9.8,-14.5 -7.7,-44.3 -19.7,-56.9c-12,-12.6 -38.2,-8.1 -49.9,-17.5c-11.7,-9.4 -8.9,-32.6 -12.1,-50.2c-3.1,-17.6 -12.3,-29.4 -16.7,-43c-4.5,-13.7 -4.3,-29 -11.9,-44.3c-7.6,-15.3 -23,-30.5 -38.5,-45.7l297.5,0l0,297.5z"
         style="fill:#bfbfbe;fill-opacity:0.99607843" />
      <path
         id="svg_4"
         fill="#eae9e3"
         d="m900,198.3c-10.8,-6.4 -21.6,-12.8 -32.2,-15.8c-10.6,-3 -21,-2.5 -33.5,-2.1c-12.4,0.5 -26.9,1 -33.5,-8.7c-6.5,-9.6 -5.1,-29.5 -13.1,-37.9c-8,-8.4 -25.5,-5.4 -33.2,-11.7c-7.8,-6.2 -6,-21.7 -8.1,-33.4c-2.1,-11.7 -8.2,-19.7 -11.2,-28.7c-2.9,-9.1 -2.8,-19.4 -7.9,-29.6c-5,-10.1 -15.3,-20.3 -25.6,-30.4l198.3,0l0,198.3z"
         style="fill:#a9a9a9;fill-opacity:0.99607843" />
      <path
         id="svg_5"
         fill="#e3e2dd"
         d="m900,99.2c-5.4,-3.2 -10.8,-6.4 -16.1,-7.9c-5.3,-1.5 -10.5,-1.3 -16.7,-1.1c-6.3,0.2 -13.5,0.5 -16.8,-4.3c-3.2,-4.9 -2.5,-14.8 -6.5,-19c-4,-4.2 -12.8,-2.7 -16.7,-5.8c-3.9,-3.2 -2.9,-10.9 -4,-16.8c-1,-5.8 -4.1,-9.8 -5.6,-14.3c-1.5,-4.6 -1.4,-9.7 -3.9,-14.8c-2.6,-5.1 -7.7,-10.1 -12.9,-15.2l99.2,0l0,99.2z"
         style="fill:#767676;fill-opacity:0.99607843" />
    </g>
    <g
       id="svg_6">
      <path
         id="svg_7"
         fill="#f8f6f0"
         d="m0,302.5c14,22.1 28,44.2 44.1,47.4c16.2,3.1 34.5,-12.6 53.7,-18.7c19.3,-6 39.5,-2.5 50.9,11.2c11.5,13.7 14.3,37.5 23.6,52.3c9.3,14.8 25.1,20.7 33,33c7.9,12.4 7.8,31.2 15.5,44.8c7.8,13.6 23.5,22 36.7,33.8c13.2,11.7 23.8,26.8 30.1,43c6.2,16.2 8,33.4 9.9,50.7l-297.5,0l0,-297.5z"
         style="fill:#bfbfbe;fill-opacity:1" />
      <path
         id="svg_8"
         fill="#eae9e3"
         d="m0,401.7c9.3,14.7 18.6,29.4 29.4,31.5c10.8,2.2 23,-8.3 35.8,-12.4c12.8,-4 26.3,-1.7 34,7.5c7.6,9.1 9.4,24.9 15.6,34.8c6.2,9.9 16.8,13.8 22.1,22.1c5.2,8.2 5.1,20.7 10.3,29.8c5.2,9.1 15.7,14.7 24.5,22.5c8.7,7.9 15.8,17.9 20,28.7c4.2,10.8 5.4,22.3 6.6,33.8l-198.3,0l0,-198.3z"
         style="fill:#a9a9a9;fill-opacity:1" />
      <path
         id="svg_9"
         fill="#e3e2dd"
         d="m0,500.8c4.7,7.4 9.3,14.8 14.7,15.8c5.4,1.1 11.5,-4.2 17.9,-6.2c6.4,-2 13.2,-0.8 17,3.7c3.8,4.6 4.7,12.5 7.8,17.5c3.1,4.9 8.4,6.9 11,11c2.7,4.1 2.6,10.4 5.2,14.9c2.6,4.5 7.8,7.3 12.2,11.3c4.4,3.9 8,8.9 10.1,14.3c2,5.4 2.6,11.1 3.3,16.9l-99.2,0l0,-99.2z"
         style="fill:#767676;fill-opacity:1" />
    </g>
  </g>
</svg>
