<svg width="900" height="600" xmlns="http://www.w3.org/2000/svg" version="1.1">






 <g>
  <title>Layer 1</title>
  <g id="svg_2">
   <path id="svg_3" fill="#e1d5fd" d="m900,243.4c-13.4,-18.5 -26.9,-37 -47.4,-35.7c-20.5,1.2 -48,22.3 -58.2,11.6c-10.1,-10.7 -2.9,-53.2 -15.4,-67.6c-12.4,-14.5 -44.6,-0.9 -62.7,-5.2c-18.1,-4.2 -22.1,-26.2 -28,-44.5c-5.9,-18.3 -13.8,-32.9 -19.4,-49.3c-5.6,-16.3 -8.9,-34.5 -12.3,-52.7l243.4,0l0,243.4z"/>
   <path id="svg_4" fill="#9c84f7" d="m900,162.2c-9,-12.3 -17.9,-24.6 -31.6,-23.8c-13.7,0.9 -32,14.9 -38.8,7.8c-6.8,-7.2 -1.9,-35.4 -10.2,-45.1c-8.4,-9.6 -29.8,-0.6 -41.9,-3.4c-12.1,-2.8 -14.7,-17.5 -18.7,-29.7c-3.9,-12.2 -9.1,-21.9 -12.8,-32.8c-3.8,-11 -6,-23.1 -8.2,-35.2l162.2,0l0,162.2z"/>
   <path id="svg_5" fill="#715df2" d="m900,81.1c-4.5,-6.1 -9,-12.3 -15.8,-11.9c-6.8,0.4 -16,7.5 -19.4,3.9c-3.4,-3.6 -1,-17.7 -5.1,-22.5c-4.2,-4.9 -14.9,-0.3 -20.9,-1.8c-6.1,-1.4 -7.4,-8.7 -9.4,-14.8c-1.9,-6.1 -4.6,-11 -6.4,-16.4c-1.9,-5.5 -3,-11.5 -4.1,-17.6l81.1,0l0,81.1z"/>
  </g>
  <g id="svg_6">
   <path id="svg_7" fill="#e1d5fd" d="m0,356.6c14.3,20.4 28.6,40.8 44.5,48.4c16,7.7 33.6,2.6 45.3,8.5c11.7,5.9 17.6,22.7 37.4,27c19.8,4.4 53.6,-3.7 63.1,7.8c9.5,11.5 -5.4,42.5 -3.8,61.9c1.6,19.3 19.7,26.9 31.9,40c12.2,13 18.6,31.4 25,49.8l-243.4,0l0,-243.4z"/>
   <path id="svg_8" fill="#9c84f7" d="m0,437.8c9.5,13.5 19,27.1 29.7,32.2c10.6,5.1 22.4,1.8 30.2,5.7c7.8,3.9 11.7,15.1 24.9,18c13.2,2.9 35.7,-2.5 42.1,5.1c6.3,7.7 -3.6,28.4 -2.6,41.3c1.1,12.9 13.1,18 21.3,26.7c8.1,8.6 12.4,20.9 16.6,33.2l-162.2,0l0,-162.2z"/>
   <path id="svg_9" fill="#715df2" d="m0,518.9c4.8,6.8 9.5,13.6 14.8,16.1c5.4,2.6 11.2,0.9 15.1,2.8c3.9,2 5.9,7.6 12.5,9c6.6,1.5 17.9,-1.2 21,2.6c3.2,3.9 -1.8,14.2 -1.2,20.7c0.5,6.4 6.5,8.9 10.6,13.3c4.1,4.3 6.2,10.5 8.3,16.6l-81.1,0l0,-81.1z"/>
  </g>
 </g>
</svg>