<svg id="visual" viewBox="0 0 900 600" width="900" height="600" xmlns="http://www.w3.org/2000/svg" xmlns:xlink="http://www.w3.org/1999/xlink" version="1.1"><rect x="0" y="0" width="900" height="600" fill="#fffdf6"></rect><defs><linearGradient id="grad1_0" x1="33.3%" y1="100%" x2="100%" y2="0%"><stop offset="20%" stop-color="#fb7c80" stop-opacity="1"></stop><stop offset="80%" stop-color="#fb7c80" stop-opacity="1"></stop></linearGradient></defs><defs><linearGradient id="grad1_1" x1="33.3%" y1="100%" x2="100%" y2="0%"><stop offset="20%" stop-color="#fb7c80" stop-opacity="1"></stop><stop offset="80%" stop-color="#faae8f" stop-opacity="1"></stop></linearGradient></defs><defs><linearGradient id="grad1_2" x1="33.3%" y1="100%" x2="100%" y2="0%"><stop offset="20%" stop-color="#f7d9ba" stop-opacity="1"></stop><stop offset="80%" stop-color="#faae8f" stop-opacity="1"></stop></linearGradient></defs><defs><linearGradient id="grad1_3" x1="33.3%" y1="100%" x2="100%" y2="0%"><stop offset="20%" stop-color="#f7d9ba" stop-opacity="1"></stop><stop offset="80%" stop-color="#fffdf6" stop-opacity="1"></stop></linearGradient></defs><defs><linearGradient id="grad2_0" x1="0%" y1="100%" x2="66.7%" y2="0%"><stop offset="20%" stop-color="#fb7c80" stop-opacity="1"></stop><stop offset="80%" stop-color="#fb7c80" stop-opacity="1"></stop></linearGradient></defs><defs><linearGradient id="grad2_1" x1="0%" y1="100%" x2="66.7%" y2="0%"><stop offset="20%" stop-color="#faae8f" stop-opacity="1"></stop><stop offset="80%" stop-color="#fb7c80" stop-opacity="1"></stop></linearGradient></defs><defs><linearGradient id="grad2_2" x1="0%" y1="100%" x2="66.7%" y2="0%"><stop offset="20%" stop-color="#faae8f" stop-opacity="1"></stop><stop offset="80%" stop-color="#f7d9ba" stop-opacity="1"></stop></linearGradient></defs><defs><linearGradient id="grad2_3" x1="0%" y1="100%" x2="66.7%" y2="0%"><stop offset="20%" stop-color="#fffdf6" stop-opacity="1"></stop><stop offset="80%" stop-color="#f7d9ba" stop-opacity="1"></stop></linearGradient></defs><g transform="translate(900, 600)"><path d="M-243.4 0C-223.7 -12.8 -204 -25.5 -197.1 -39.2C-190.3 -52.9 -196.2 -67.5 -194.9 -80.7C-193.7 -94 -185.3 -106 -178.8 -119.4C-172.2 -132.9 -167.4 -147.9 -155.6 -155.6C-143.7 -163.2 -124.8 -163.5 -110 -164.6C-95.2 -165.8 -84.6 -167.8 -75.8 -182.9C-66.9 -198.1 -59.8 -226.4 -47.5 -238.7C-35.1 -251 -17.6 -247.2 0 -243.4L0 0Z" fill="#f9ecd7"></path><path d="M-182.5 0C-167.8 -9.6 -153 -19.2 -147.9 -29.4C-142.7 -39.7 -147.1 -50.6 -146.2 -60.6C-145.3 -70.5 -139 -79.5 -134.1 -89.6C-129.1 -99.7 -125.6 -110.9 -116.7 -116.7C-107.8 -122.4 -93.6 -122.6 -82.5 -123.5C-71.4 -124.3 -63.5 -125.8 -56.8 -137.2C-50.2 -148.6 -44.9 -169.8 -35.6 -179C-26.4 -188.2 -13.2 -185.4 0 -182.5L0 0Z" fill="#f8c5a1"></path><path d="M-121.7 0C-111.8 -6.4 -102 -12.8 -98.6 -19.6C-95.1 -26.4 -98.1 -33.7 -97.5 -40.4C-96.9 -47 -92.7 -53 -89.4 -59.7C-86.1 -66.5 -83.7 -74 -77.8 -77.8C-71.9 -81.6 -62.4 -81.7 -55 -82.3C-47.6 -82.9 -42.3 -83.9 -37.9 -91.5C-33.5 -99 -29.9 -113.2 -23.7 -119.3C-17.6 -125.5 -8.8 -123.6 0 -121.7L0 0Z" fill="#fc9684"></path><path d="M-60.8 0C-55.9 -3.2 -51 -6.4 -49.3 -9.8C-47.6 -13.2 -49 -16.9 -48.7 -20.2C-48.4 -23.5 -46.3 -26.5 -44.7 -29.9C-43 -33.2 -41.9 -37 -38.9 -38.9C-35.9 -40.8 -31.2 -40.9 -27.5 -41.2C-23.8 -41.4 -21.2 -41.9 -18.9 -45.7C-16.7 -49.5 -15 -56.6 -11.9 -59.7C-8.8 -62.7 -4.4 -61.8 0 -60.8L0 0Z" fill="#fb7c80"></path></g><g transform="translate(0, 0)"><path d="M243.4 0C241.8 15.5 240.3 30.9 238.7 47.5C237.1 64 235.4 81.7 220.8 91.5C206.2 101.2 178.7 103.1 163 108.9C147.3 114.7 143.4 124.3 141.4 141.4C139.4 158.5 139.2 183 128.9 192.9C118.6 202.8 98.3 198.2 82.7 199.6C67 201 56.1 208.4 43.1 216.8C30.1 225.1 15.1 234.2 0 243.4L0 0Z" fill="#f9ecd7"></path><path d="M182.5 0C181.4 11.6 180.2 23.2 179 35.6C177.8 48 176.6 61.3 165.6 68.6C154.6 75.9 134 77.3 122.2 81.7C110.5 86 107.6 93.3 106.1 106.1C104.5 118.9 104.4 137.2 96.7 144.7C89 152.1 73.7 148.6 62 149.7C50.3 150.7 42.1 156.3 32.3 162.6C22.6 168.8 11.3 175.7 0 182.5L0 0Z" fill="#f8c5a1"></path><path d="M121.7 0C120.9 7.7 120.2 15.5 119.3 23.7C118.5 32 117.7 40.8 110.4 45.7C103.1 50.6 89.3 51.6 81.5 54.4C73.6 57.3 71.7 62.2 70.7 70.7C69.7 79.3 69.6 91.5 64.4 96.5C59.3 101.4 49.1 99.1 41.3 99.8C33.5 100.5 28.1 104.2 21.6 108.4C15.1 112.5 7.5 117.1 0 121.7L0 0Z" fill="#fc9684"></path><path d="M60.8 0C60.5 3.9 60.1 7.7 59.7 11.9C59.3 16 58.9 20.4 55.2 22.9C51.5 25.3 44.7 25.8 40.7 27.2C36.8 28.7 35.9 31.1 35.4 35.4C34.8 39.6 34.8 45.7 32.2 48.2C29.7 50.7 24.6 49.5 20.7 49.9C16.8 50.2 14 52.1 10.8 54.2C7.5 56.3 3.8 58.6 0 60.8L0 0Z" fill="#fb7c80"></path></g></svg>