<svg id="visual" viewBox="0 0 900 600" width="900" height="600" xmlns="http://www.w3.org/2000/svg" xmlns:xlink="http://www.w3.org/1999/xlink" version="1.1"><rect x="0" y="0" width="900" height="600" fill="#fffdf6"></rect><defs><linearGradient id="grad1_0" x1="33.3%" y1="0%" x2="100%" y2="100%"><stop offset="20%" stop-color="#e3e2dd" stop-opacity="1"></stop><stop offset="80%" stop-color="#e3e2dd" stop-opacity="1"></stop></linearGradient></defs><defs><linearGradient id="grad1_1" x1="33.3%" y1="0%" x2="100%" y2="100%"><stop offset="20%" stop-color="#e3e2dd" stop-opacity="1"></stop><stop offset="80%" stop-color="#f1efe9" stop-opacity="1"></stop></linearGradient></defs><defs><linearGradient id="grad1_2" x1="33.3%" y1="0%" x2="100%" y2="100%"><stop offset="20%" stop-color="#fffdf6" stop-opacity="1"></stop><stop offset="80%" stop-color="#f1efe9" stop-opacity="1"></stop></linearGradient></defs><defs><linearGradient id="grad2_0" x1="0%" y1="0%" x2="66.7%" y2="100%"><stop offset="20%" stop-color="#e3e2dd" stop-opacity="1"></stop><stop offset="80%" stop-color="#e3e2dd" stop-opacity="1"></stop></linearGradient></defs><defs><linearGradient id="grad2_1" x1="0%" y1="0%" x2="66.7%" y2="100%"><stop offset="20%" stop-color="#f1efe9" stop-opacity="1"></stop><stop offset="80%" stop-color="#e3e2dd" stop-opacity="1"></stop></linearGradient></defs><defs><linearGradient id="grad2_2" x1="0%" y1="0%" x2="66.7%" y2="100%"><stop offset="20%" stop-color="#f1efe9" stop-opacity="1"></stop><stop offset="80%" stop-color="#fffdf6" stop-opacity="1"></stop></linearGradient></defs><g transform="translate(900, 0)"><path d="M0 297.5C-16.2 287.9 -32.4 278.3 -48.3 273.8C-64.2 269.3 -79.8 269.9 -98.5 270.6C-117.2 271.3 -138.9 272.1 -148.7 257.6C-158.5 243.1 -156.4 213.3 -168.4 200.7C-180.4 188.1 -206.6 192.6 -218.3 183.2C-230 173.8 -227.2 150.6 -230.4 133C-233.5 115.4 -242.7 103.6 -247.1 90C-251.6 76.3 -251.4 61 -259 45.7C-266.6 30.4 -282 15.2 -297.5 0L0 0Z" fill="#f8f6f0"></path><path d="M0 198.3C-10.8 191.9 -21.6 185.5 -32.2 182.5C-42.8 179.5 -53.2 180 -65.7 180.4C-78.1 180.9 -92.6 181.4 -99.2 171.7C-105.7 162.1 -104.3 142.2 -112.3 133.8C-120.3 125.4 -137.8 128.4 -145.5 122.1C-153.3 115.9 -151.5 100.4 -153.6 88.7C-155.7 77 -161.8 69 -164.8 60C-167.7 50.9 -167.6 40.6 -172.7 30.4C-177.7 20.3 -188 10.1 -198.3 0L0 0Z" fill="#eae9e3"></path><path d="M0 99.2C-5.4 96 -10.8 92.8 -16.1 91.3C-21.4 89.8 -26.6 90 -32.8 90.2C-39.1 90.4 -46.3 90.7 -49.6 85.9C-52.8 81 -52.1 71.1 -56.1 66.9C-60.1 62.7 -68.9 64.2 -72.8 61.1C-76.7 57.9 -75.7 50.2 -76.8 44.3C-77.8 38.5 -80.9 34.5 -82.4 30C-83.9 25.4 -83.8 20.3 -86.3 15.2C-88.9 10.1 -94 5.1 -99.2 0L0 0Z" fill="#e3e2dd"></path></g><g transform="translate(0, 600)"><path d="M0 -297.5C14 -275.4 28 -253.3 44.1 -250.1C60.3 -247 78.6 -262.7 97.8 -268.8C117.1 -274.8 137.3 -271.3 148.7 -257.6C160.2 -243.9 163 -220.1 172.3 -205.3C181.6 -190.5 197.4 -184.6 205.3 -172.3C213.2 -159.9 213.1 -141.1 220.8 -127.5C228.6 -113.9 244.3 -105.5 257.5 -93.7C270.7 -82 281.3 -66.9 287.6 -50.7C293.8 -34.5 295.6 -17.3 297.5 0L0 0Z" fill="#f8f6f0"></path><path d="M0 -198.3C9.3 -183.6 18.6 -168.9 29.4 -166.8C40.2 -164.6 52.4 -175.1 65.2 -179.2C78 -183.2 91.5 -180.9 99.2 -171.7C106.8 -162.6 108.6 -146.8 114.8 -136.9C121 -127 131.6 -123.1 136.9 -114.8C142.1 -106.6 142 -94.1 147.2 -85C152.4 -75.9 162.9 -70.3 171.7 -62.5C180.4 -54.6 187.5 -44.6 191.7 -33.8C195.9 -23 197.1 -11.5 198.3 0L0 0Z" fill="#eae9e3"></path><path d="M0 -99.2C4.7 -91.8 9.3 -84.4 14.7 -83.4C20.1 -82.3 26.2 -87.6 32.6 -89.6C39 -91.6 45.8 -90.4 49.6 -85.9C53.4 -81.3 54.3 -73.4 57.4 -68.4C60.5 -63.5 65.8 -61.5 68.4 -57.4C71.1 -53.3 71 -47 73.6 -42.5C76.2 -38 81.4 -35.2 85.8 -31.2C90.2 -27.3 93.8 -22.3 95.9 -16.9C97.9 -11.5 98.5 -5.8 99.2 0L0 0Z" fill="#e3e2dd"></path></g></svg>