<svg id="visual" viewBox="0 0 900 600" width="900" height="600" xmlns="http://www.w3.org/2000/svg" xmlns:xlink="http://www.w3.org/1999/xlink" version="1.1"><path d="M0 454L21.5 448.8C43 443.7 86 433.3 128.8 428.3C171.7 423.3 214.3 423.7 257.2 431.5C300 439.3 343 454.7 385.8 453.7C428.7 452.7 471.3 435.3 514.2 433.8C557 432.3 600 446.7 642.8 450.7C685.7 454.7 728.3 448.3 771.2 449.3C814 450.3 857 458.7 878.5 462.8L900 467L900 601L878.5 601C857 601 814 601 771.2 601C728.3 601 685.7 601 642.8 601C600 601 557 601 514.2 601C471.3 601 428.7 601 385.8 601C343 601 300 601 257.2 601C214.3 601 171.7 601 128.8 601C86 601 43 601 21.5 601L0 601Z" fill="#6600ff"></path><path d="M0 483L21.5 476.7C43 470.3 86 457.7 128.8 450.5C171.7 443.3 214.3 441.7 257.2 450.2C300 458.7 343 477.3 385.8 476.3C428.7 475.3 471.3 454.7 514.2 446.5C557 438.3 600 442.7 642.8 443.3C685.7 444 728.3 441 771.2 444C814 447 857 456 878.5 460.5L900 465L900 601L878.5 601C857 601 814 601 771.2 601C728.3 601 685.7 601 642.8 601C600 601 557 601 514.2 601C471.3 601 428.7 601 385.8 601C343 601 300 601 257.2 601C214.3 601 171.7 601 128.8 601C86 601 43 601 21.5 601L0 601Z" fill="#672bfd"></path><path d="M0 526L21.5 520.7C43 515.3 86 504.7 128.8 499.8C171.7 495 214.3 496 257.2 493.8C300 491.7 343 486.3 385.8 489.7C428.7 493 471.3 505 514.2 511.8C557 518.7 600 520.3 642.8 514.5C685.7 508.7 728.3 495.3 771.2 494.8C814 494.3 857 506.7 878.5 512.8L900 519L900 601L878.5 601C857 601 814 601 771.2 601C728.3 601 685.7 601 642.8 601C600 601 557 601 514.2 601C471.3 601 428.7 601 385.8 601C343 601 300 601 257.2 601C214.3 601 171.7 601 128.8 601C86 601 43 601 21.5 601L0 601Z" fill="#6940fa"></path><path d="M0 554L21.5 554C43 554 86 554 128.8 547.7C171.7 541.3 214.3 528.7 257.2 520.8C300 513 343 510 385.8 516.3C428.7 522.7 471.3 538.3 514.2 542C557 545.7 600 537.3 642.8 534.3C685.7 531.3 728.3 533.7 771.2 533.7C814 533.7 857 531.3 878.5 530.2L900 529L900 601L878.5 601C857 601 814 601 771.2 601C728.3 601 685.7 601 642.8 601C600 601 557 601 514.2 601C471.3 601 428.7 601 385.8 601C343 601 300 601 257.2 601C214.3 601 171.7 601 128.8 601C86 601 43 601 21.5 601L0 601Z" fill="#6c50f6"></path><path d="M0 540L21.5 543C43 546 86 552 128.8 553.7C171.7 555.3 214.3 552.7 257.2 555.7C300 558.7 343 567.3 385.8 566.3C428.7 565.3 471.3 554.7 514.2 552C557 549.3 600 554.7 642.8 560.2C685.7 565.7 728.3 571.3 771.2 574C814 576.7 857 576.3 878.5 576.2L900 576L900 601L878.5 601C857 601 814 601 771.2 601C728.3 601 685.7 601 642.8 601C600 601 557 601 514.2 601C471.3 601 428.7 601 385.8 601C343 601 300 601 257.2 601C214.3 601 171.7 601 128.8 601C86 601 43 601 21.5 601L0 601Z" fill="#715df2"></path></svg>