<svg id="visual" viewBox="0 0 900 600" width="900" height="600" xmlns="http://www.w3.org/2000/svg" xmlns:xlink="http://www.w3.org/1999/xlink" version="1.1"><path d="M0 374L18.8 388.3C37.7 402.7 75.3 431.3 112.8 441.5C150.3 451.7 187.7 443.3 225.2 442.8C262.7 442.3 300.3 449.7 337.8 440.3C375.3 431 412.7 405 450.2 400C487.7 395 525.3 411 562.8 419.8C600.3 428.7 637.7 430.3 675.2 427.5C712.7 424.7 750.3 417.3 787.8 414.8C825.3 412.3 862.7 414.7 881.3 415.8L900 417L900 601L881.3 601C862.7 601 825.3 601 787.8 601C750.3 601 712.7 601 675.2 601C637.7 601 600.3 601 562.8 601C525.3 601 487.7 601 450.2 601C412.7 601 375.3 601 337.8 601C300.3 601 262.7 601 225.2 601C187.7 601 150.3 601 112.8 601C75.3 601 37.7 601 18.8 601L0 601Z" fill="#fb7c80"></path><path d="M0 441L18.8 445.7C37.7 450.3 75.3 459.7 112.8 457.2C150.3 454.7 187.7 440.3 225.2 428.2C262.7 416 300.3 406 337.8 412.8C375.3 419.7 412.7 443.3 450.2 456.3C487.7 469.3 525.3 471.7 562.8 470.7C600.3 469.7 637.7 465.3 675.2 459.8C712.7 454.3 750.3 447.7 787.8 448.5C825.3 449.3 862.7 457.7 881.3 461.8L900 466L900 601L881.3 601C862.7 601 825.3 601 787.8 601C750.3 601 712.7 601 675.2 601C637.7 601 600.3 601 562.8 601C525.3 601 487.7 601 450.2 601C412.7 601 375.3 601 337.8 601C300.3 601 262.7 601 225.2 601C187.7 601 150.3 601 112.8 601C75.3 601 37.7 601 18.8 601L0 601Z" fill="#fe6987"></path><path d="M0 434L18.8 432.3C37.7 430.7 75.3 427.3 112.8 426.8C150.3 426.3 187.7 428.7 225.2 428.2C262.7 427.7 300.3 424.3 337.8 428.5C375.3 432.7 412.7 444.3 450.2 455.3C487.7 466.3 525.3 476.7 562.8 475.7C600.3 474.7 637.7 462.3 675.2 459C712.7 455.7 750.3 461.3 787.8 457C825.3 452.7 862.7 438.3 881.3 431.2L900 424L900 601L881.3 601C862.7 601 825.3 601 787.8 601C750.3 601 712.7 601 675.2 601C637.7 601 600.3 601 562.8 601C525.3 601 487.7 601 450.2 601C412.7 601 375.3 601 337.8 601C300.3 601 262.7 601 225.2 601C187.7 601 150.3 601 112.8 601C75.3 601 37.7 601 18.8 601L0 601Z" fill="#fd5593"></path><path d="M0 457L18.8 462.3C37.7 467.7 75.3 478.3 112.8 486.3C150.3 494.3 187.7 499.7 225.2 493.2C262.7 486.7 300.3 468.3 337.8 464.7C375.3 461 412.7 472 450.2 472.8C487.7 473.7 525.3 464.3 562.8 464.5C600.3 464.7 637.7 474.3 675.2 473.5C712.7 472.7 750.3 461.3 787.8 463.2C825.3 465 862.7 480 881.3 487.5L900 495L900 601L881.3 601C862.7 601 825.3 601 787.8 601C750.3 601 712.7 601 675.2 601C637.7 601 600.3 601 562.8 601C525.3 601 487.7 601 450.2 601C412.7 601 375.3 601 337.8 601C300.3 601 262.7 601 225.2 601C187.7 601 150.3 601 112.8 601C75.3 601 37.7 601 18.8 601L0 601Z" fill="#f641a3"></path><path d="M0 521L18.8 519.7C37.7 518.3 75.3 515.7 112.8 510.3C150.3 505 187.7 497 225.2 494.2C262.7 491.3 300.3 493.7 337.8 497.8C375.3 502 412.7 508 450.2 506.2C487.7 504.3 525.3 494.7 562.8 493.2C600.3 491.7 637.7 498.3 675.2 498.8C712.7 499.3 750.3 493.7 787.8 494.2C825.3 494.7 862.7 501.3 881.3 504.7L900 508L900 601L881.3 601C862.7 601 825.3 601 787.8 601C750.3 601 712.7 601 675.2 601C637.7 601 600.3 601 562.8 601C525.3 601 487.7 601 450.2 601C412.7 601 375.3 601 337.8 601C300.3 601 262.7 601 225.2 601C187.7 601 150.3 601 112.8 601C75.3 601 37.7 601 18.8 601L0 601Z" fill="#ea32b7"></path><path d="M0 528L18.8 528C37.7 528 75.3 528 112.8 528.7C150.3 529.3 187.7 530.7 225.2 528.8C262.7 527 300.3 522 337.8 523.3C375.3 524.7 412.7 532.3 450.2 536.2C487.7 540 525.3 540 562.8 536.2C600.3 532.3 637.7 524.7 675.2 525.2C712.7 525.7 750.3 534.3 787.8 534.2C825.3 534 862.7 525 881.3 520.5L900 516L900 601L881.3 601C862.7 601 825.3 601 787.8 601C750.3 601 712.7 601 675.2 601C637.7 601 600.3 601 562.8 601C525.3 601 487.7 601 450.2 601C412.7 601 375.3 601 337.8 601C300.3 601 262.7 601 225.2 601C187.7 601 150.3 601 112.8 601C75.3 601 37.7 601 18.8 601L0 601Z" fill="#d52ece"></path><path d="M0 541L18.8 540.5C37.7 540 75.3 539 112.8 540.5C150.3 542 187.7 546 225.2 546.2C262.7 546.3 300.3 542.7 337.8 540.8C375.3 539 412.7 539 450.2 541.3C487.7 543.7 525.3 548.3 562.8 548C600.3 547.7 637.7 542.3 675.2 538.3C712.7 534.3 750.3 531.7 787.8 532.2C825.3 532.7 862.7 536.3 881.3 538.2L900 540L900 601L881.3 601C862.7 601 825.3 601 787.8 601C750.3 601 712.7 601 675.2 601C637.7 601 600.3 601 562.8 601C525.3 601 487.7 601 450.2 601C412.7 601 375.3 601 337.8 601C300.3 601 262.7 601 225.2 601C187.7 601 150.3 601 112.8 601C75.3 601 37.7 601 18.8 601L0 601Z" fill="#b436e7"></path><path d="M0 577L18.8 573.7C37.7 570.3 75.3 563.7 112.8 559.8C150.3 556 187.7 555 225.2 554.7C262.7 554.3 300.3 554.7 337.8 555.3C375.3 556 412.7 557 450.2 557.7C487.7 558.3 525.3 558.7 562.8 559.8C600.3 561 637.7 563 675.2 563.3C712.7 563.7 750.3 562.3 787.8 561.7C825.3 561 862.7 561 881.3 561L900 561L900 601L881.3 601C862.7 601 825.3 601 787.8 601C750.3 601 712.7 601 675.2 601C637.7 601 600.3 601 562.8 601C525.3 601 487.7 601 450.2 601C412.7 601 375.3 601 337.8 601C300.3 601 262.7 601 225.2 601C187.7 601 150.3 601 112.8 601C75.3 601 37.7 601 18.8 601L0 601Z" fill="#7e44ff"></path></svg>