<svg width="900" height="600" xmlns="http://www.w3.org/2000/svg" version="1.1">






 <g>
  <title>Layer 1</title>
  <g id="svg_2">
   <path id="svg_3" fill="#e1d5fd" d="m656.6,600c-1.4,-19.1 -2.8,-38.1 6.1,-54.2c9,-16 28.3,-29 45.4,-38.2c17.1,-9.2 31.9,-14.7 39.4,-29.2c7.6,-14.5 7.8,-38.1 20.3,-44.1c12.5,-6.1 37.3,5.4 52.4,-0.1c15,-5.5 20.3,-28 32,-43.8c11.6,-15.8 29.7,-24.8 47.8,-33.8l0,243.4l-243.4,0z"/>
   <path id="svg_4" fill="#9c84f7" d="m737.8,600c-1,-12.7 -2,-25.4 4,-36.1c6,-10.7 18.9,-19.4 30.3,-25.5c11.4,-6.2 21.2,-9.8 26.3,-19.5c5,-9.6 5.1,-25.4 13.5,-29.4c8.3,-4 24.9,3.7 34.9,0c10,-3.7 13.5,-18.7 21.3,-29.2c7.8,-10.6 19.8,-16.6 31.9,-22.5l0,162.2l-162.2,0z"/>
   <path id="svg_5" fill="#715df2" d="m818.9,600c-0.5,-6.4 -1,-12.7 2,-18.1c3,-5.3 9.4,-9.6 15.1,-12.7c5.7,-3.1 10.7,-4.9 13.2,-9.7c2.5,-4.9 2.6,-12.7 6.7,-14.7c4.2,-2.1 12.5,1.8 17.5,-0.1c5,-1.8 6.8,-9.3 10.7,-14.6c3.8,-5.2 9.9,-8.2 15.9,-11.2l0,81.1l-81.1,0z"/>
  </g>
  <g id="svg_6">
   <path id="svg_7" fill="#e1d5fd" d="m243.4,0c-20,14.7 -39.9,29.5 -50.4,44.1c-10.4,14.6 -11.3,29.1 -20.9,38.8c-9.6,9.7 -27.9,14.6 -36.8,25c-9,10.3 -8.7,26.1 -10.6,48.5c-1.9,22.3 -6.1,51.3 -19.1,62.9c-13,11.6 -34.9,5.8 -54,6.9c-19.1,1.1 -35.3,9.1 -51.6,17.2l0,-243.4l243.4,0z"/>
   <path id="svg_8" fill="#9c84f7" d="m162.2,0c-13.3,9.8 -26.6,19.6 -33.5,29.4c-7,9.7 -7.6,19.4 -14,25.8c-6.4,6.5 -18.5,9.8 -24.5,16.7c-6,6.9 -5.8,17.4 -7.1,32.3c-1.2,15 -4,34.3 -12.7,42c-8.7,7.7 -23.3,3.8 -36,4.6c-12.7,0.7 -23.6,6.1 -34.4,11.4l0,-162.2l162.2,0z"/>
   <path id="svg_9" fill="#715df2" d="m81.1,0c-6.6,4.9 -13.3,9.8 -16.8,14.7c-3.4,4.9 -3.7,9.7 -6.9,12.9c-3.2,3.3 -9.3,4.9 -12.3,8.4c-3,3.4 -2.9,8.7 -3.5,16.1c-0.7,7.5 -2.1,17.1 -6.4,21c-4.3,3.9 -11.6,1.9 -18,2.3c-6.4,0.4 -11.8,3 -17.2,5.7l0,-81.1l81.1,0z"/>
  </g>
 </g>
</svg>