<svg width="900" height="1200" xmlns="http://www.w3.org/2000/svg" version="1.1">






 <g>
  <title>Layer 1</title>
  <g id="svg_2">
   <path id="svg_3" fill="#e1d5fd" d="m900,243.4c-16,-21.1 -31.9,-42.3 -53.3,-44.4c-21.4,-2.2 -48.3,14.6 -68.4,11.8c-20.1,-2.9 -33.4,-25.5 -41.6,-47.5c-8.3,-21.9 -11.4,-43.4 -11.6,-62.3c-0.3,-18.9 2.3,-35.4 -8.6,-51.8c-11,-16.4 -35.4,-32.8 -59.9,-49.2l243.4,0l0,243.4z"/>
   <path id="svg_4" fill="#9c84f7" d="m900,162.2c-10.6,-14 -21.3,-28.1 -35.5,-29.5c-14.3,-1.5 -32.2,9.7 -45.6,7.8c-13.4,-1.9 -22.3,-16.9 -27.8,-31.6c-5.5,-14.7 -7.6,-28.9 -7.7,-41.6c-0.2,-12.6 1.5,-23.6 -5.8,-34.5c-7.2,-11 -23.5,-21.9 -39.8,-32.8l162.2,0l0,162.2z"/>
   <path id="svg_5" fill="#715df2" d="m900,81.1c-5.3,-7 -10.6,-14.1 -17.8,-14.8c-7.1,-0.7 -16.1,4.9 -22.8,4c-6.7,-1 -11.1,-8.5 -13.8,-15.9c-2.8,-7.3 -3.8,-14.4 -3.9,-20.7c-0.1,-6.3 0.8,-11.8 -2.9,-17.3c-3.6,-5.5 -11.8,-10.9 -19.9,-16.4l81.1,0l0,81.1z"/>
  </g>
  <g id="svg_6">
   <path id="svg_7" fill="#e1d5fd" d="m0,356.6c15.4,28 30.7,56 48.1,63.7c17.5,7.8 36.9,-4.7 60.9,-9.1c24,-4.3 52.4,-0.5 63.1,16.7c10.7,17.2 3.6,47.8 7.2,68.6c3.6,20.8 17.8,31.7 30.3,47.3c12.5,15.6 23.1,35.9 33.8,56.2l-243.4,0l0,-243.4z"/>
   <path id="svg_8" fill="#9c84f7" d="m0,437.8c10.2,18.6 20.5,37.3 32.1,42.4c11.6,5.2 24.6,-3.2 40.6,-6.1c15.9,-2.9 34.9,-0.3 42,11.2c7.1,11.4 2.4,31.9 4.8,45.7c2.4,13.8 11.9,21.1 20.2,31.6c8.3,10.4 15.4,23.9 22.5,37.4l-162.2,0l0,-162.2z"/>
   <path id="svg_9" fill="#715df2" d="m0,518.9c5.1,9.3 10.2,18.6 16,21.2c5.9,2.6 12.3,-1.6 20.3,-3c8,-1.5 17.5,-0.2 21.1,5.5c3.5,5.8 1.2,16 2.4,22.9c1.2,6.9 5.9,10.6 10.1,15.8c4.1,5.2 7.7,11.9 11.2,18.7l-81.1,0l0,-81.1z"/>
  </g>
  <g>






   <g transform="translate(900 600)">
    <path fill="#e1d5fd" d="m-243.4,600c-1.6,-23.4 -3.3,-46.9 9.6,-62.6c13,-15.8 40.6,-23.8 50.2,-43.4c9.6,-19.6 1.3,-50.6 11.5,-66.1c10.2,-15.5 38.9,-15.3 60.1,-21.9c21.2,-6.5 34.8,-19.8 52.2,-29.1c17.4,-9.4 38.6,-14.8 59.8,-20.3l0,243.4l-243.4,0z"/>
    <path fill="#9c84f7" d="m-162.2,600c-1.2,-15.6 -2.3,-31.3 6.4,-41.8c8.6,-10.5 27,-15.8 33.4,-28.9c6.4,-13 0.9,-33.7 7.7,-44c6.8,-10.3 25.9,-10.3 40,-14.6c14.1,-4.4 23.2,-13.2 34.8,-19.5c11.6,-6.2 25.8,-9.8 39.9,-13.4l0,162.2l-162.2,0z"/>
    <path fill="#715df2" d="m-81.1,600c-0.6,-7.8 -1.1,-15.6 3.2,-20.9c4.3,-5.2 13.5,-7.9 16.7,-14.4c3.2,-6.6 0.4,-16.9 3.8,-22.1c3.4,-5.1 13,-5.1 20.1,-7.3c7,-2.1 11.6,-6.6 17.4,-9.7c5.8,-3.1 12.8,-4.9 19.9,-6.7l0,81.1l-81.1,0z"/>
   </g>
   <g transform="translate(0 0)">
    <path fill="#e1d5fd" d="m243.4,600c-18.9,15.5 -37.7,31.1 -37.7,55.1c0.1,24.1 19,56.6 5.1,66.6c-13.9,9.9 -60.7,-2.7 -80.7,8.4c-20,11.1 -13.3,46.1 -23.6,54.4c-10.3,8.2 -37.8,-10.2 -58.4,-4.8c-20.6,5.3 -34.3,34.5 -48.1,63.7l0,-243.4l243.4,0z"/>
    <path fill="#9c84f7" d="m162.2,600c-12.5,10.4 -25.1,20.7 -25,36.8c0,16 12.6,37.7 3.3,44.3c-9.3,6.7 -40.4,-1.8 -53.8,5.6c-13.3,7.5 -8.8,30.8 -15.7,36.3c-6.9,5.5 -25.2,-6.8 -38.9,-3.2c-13.7,3.6 -22.9,23 -32.1,42.4l0,-162.2l162.2,0z"/>
    <path fill="#715df2" d="m81.1,600c-6.3,5.2 -12.5,10.4 -12.5,18.4c0,8 6.3,18.8 1.7,22.2c-4.7,3.3 -20.3,-0.9 -26.9,2.8c-6.7,3.7 -4.5,15.3 -7.9,18.1c-3.4,2.7 -12.6,-3.4 -19.5,-1.6c-6.8,1.8 -11.4,11.5 -16,21.2l0,-81.1l81.1,0z"/>
   </g>
  </g>
 </g>
</svg>