<?xml version="1.0" encoding="UTF-8" standalone="no"?>
<!-- Created with Inkscape (http://www.inkscape.org/) -->

<svg
   width="512"
   height="512"
   viewBox="0 0 512 512"
   version="1.1"
   id="svg1"
   xml:space="preserve"
   inkscape:version="1.3.2 (091e20e, 2023-11-25, custom)"
   sodipodi:docname="logo_with_bg.svg"
   inkscape:export-filename="..\..\..\..\Users\gusta\Downloads\logo_withbg.svg"
   inkscape:export-xdpi="96"
   inkscape:export-ydpi="96"
   xmlns:inkscape="http://www.inkscape.org/namespaces/inkscape"
   xmlns:sodipodi="http://sodipodi.sourceforge.net/DTD/sodipodi-0.dtd"
   xmlns="http://www.w3.org/2000/svg"
   xmlns:svg="http://www.w3.org/2000/svg"><sodipodi:namedview
     id="namedview1"
     pagecolor="#505050"
     bordercolor="#eeeeee"
     borderopacity="1"
     inkscape:showpageshadow="0"
     inkscape:pageopacity="0"
     inkscape:pagecheckerboard="0"
     inkscape:deskcolor="#505050"
     inkscape:document-units="px"
     inkscape:zoom="0.61328125"
     inkscape:cx="171.21019"
     inkscape:cy="188.33121"
     inkscape:window-width="1366"
     inkscape:window-height="697"
     inkscape:window-x="-8"
     inkscape:window-y="-8"
     inkscape:window-maximized="1"
     inkscape:current-layer="layer1" /><defs
     id="defs1" /><g
     inkscape:label="Camada 1"
     inkscape:groupmode="layer"
     id="layer1"
     transform="matrix(0.86741148,0,0,0.86741148,33.942664,34.649854)"
     style="stroke:#ffffff;stroke-opacity:1"><g
       inkscape:groupmode="layer"
       id="layer3"
       inkscape:label="Layer 1"
       style="display:inline;stroke:#ffffff;stroke-opacity:1"><path
         style="fill:#ffffff;fill-opacity:1;stroke:none;stroke-width:10.1071;stroke-linecap:round;stroke-linejoin:round;stroke-dasharray:none;stroke-opacity:1;paint-order:stroke fill markers"
         d="m 154.9366,479.11807 c 0,0 -27.91382,-95.03995 -29.90767,-152.19685 -1.99384,-57.15689 18.18649,-91.70304 29.48495,-97.68457 11.29846,-5.98153 44.20352,-18.47359 44.20352,-18.47359 l -29.15926,-49.33098 -1.32923,-21.93229 9.96922,-40.541523 15.28615,-27.249213 -9.30461,-22.596911 -14.62153,-9.304611 9.3046,-8.639995 26.58461,-1.329229 13.29229,9.304609 9.96923,7.310766 27.91383,-8.639996 33.23076,-3.323074 18.60922,6.64615 17.94461,4.652304 25.91998,-13.2923 24.59075,-3.98769 7.31077,4.652305 -17.27999,15.950761 -1.32923,12.627685 4.65231,20.603061 9.96922,17.944611 7.31077,34.55999 v 19.27382 l -16.61538,35.88922 -20.7413,17.48503 c 0,0 6.77152,5.21277 12.89952,11.07958 6.12799,5.86682 14.09169,33.76869 14.09169,33.76869 l 1.72547,10.10974 -3.32308,22.59691 -11.96306,39.21229 -11.29846,23.26152 -27.24921,31.23691 -38.54768,13.95691 -24.59075,6.64616 -21.26768,9.96922 -17.27999,9.96923 -14.62154,11.96306 -19.93845,17.94461 -28.57844,16.61538 z"
         id="path10"
         sodipodi:nodetypes="csscccccccccccccccccccccccccczcccccccccccccc" /></g><g
       id="line"
       transform="matrix(8.9906387,0,0,8.9906387,-73.615855,-67.400923)"
       style="display:inline;stroke:#000000;stroke-opacity:1"><path
         fill="none"
         stroke="#000000"
         stroke-linecap="round"
         stroke-linejoin="round"
         stroke-miterlimit="10"
         stroke-width="1.5"
         d="m 37,22 c 0,0 0.5,-1.5 -3,-2"
         id="path1"
         style="stroke:#000000;stroke-opacity:1" /><path
         fill="none"
         stroke="#000000"
         stroke-linecap="round"
         stroke-linejoin="round"
         stroke-miterlimit="10"
         stroke-width="1.5"
         d="m 41,22 c 0,0 -0.5,-1.5 3,-2"
         id="path2"
         style="stroke:#000000;stroke-opacity:1" /><polyline
         fill="none"
         stroke="#000000"
         stroke-linecap="round"
         stroke-linejoin="round"
         stroke-miterlimit="10"
         stroke-width="1.5"
         points="37.625,25.43 39.375,27 41.375,25.3438"
         id="polyline2"
         style="stroke:#000000;stroke-opacity:1" /><path
         fill="none"
         stroke="#000000"
         stroke-linecap="round"
         stroke-linejoin="round"
         stroke-miterlimit="10"
         stroke-width="2"
         d="M 30,30 C 30,30 23.5,24.5 29.75,15.25 29.75,15.25 29,12 27,12 c -2,0 5,-3 6,1 0,0 7,-3 11,0 0,0 5.25,-3.5 7.125,-1.75 0,0 -4.125,2.75 -2.125,4.75 2,2 4,10 -1,14"
         id="path5"
         style="stroke:#000000;stroke-opacity:1" /><path
         fill="none"
         stroke="#000000"
         stroke-linecap="round"
         stroke-linejoin="round"
         stroke-miterlimit="10"
         stroke-width="2"
         d="m 40,30 c 0,0 -10,0 -10,-7.875 0,-8.7341 8.1907,-4.7359 9,-3.125 0,0 7,-6 9.125,1.5 C 50.1834,27.7649 40,30 40,30 Z"
         id="path6"
         style="stroke:#000000;stroke-opacity:1" /><path
         fill="none"
         stroke="#000000"
         stroke-linecap="round"
         stroke-linejoin="round"
         stroke-miterlimit="10"
         stroke-width="2"
         d="m 27,31 c -9.5,4.375 -2,30 -2,30 0,0 8.75,-9.25 15.875,-10.125 C 48,50 51.75,36.75 50,32"
         id="path7"
         style="stroke:#000000;stroke-opacity:1" /><path
         fill="none"
         stroke="#000000"
         stroke-linecap="round"
         stroke-linejoin="round"
         stroke-miterlimit="10"
         stroke-width="2"
         d="m 25,59 c 0,0 -0.75,-7 1.625,-9 C 29,48 37,41 36,35"
         id="path8"
         style="stroke:#000000;stroke-opacity:1" /></g></g></svg>
